<svg id="Layer_1" data-name="Layer 1" xmlns="http://www.w3.org/2000/svg" viewBox="0 0 103.07 83.51"><defs><style>.cls-1{fill:#fff;}</style></defs><path class="cls-1" d="M17.41,63.65a36.06,36.06,0,0,1,5-13.73c13.78-22.13,42.75-21.6,57.84-1.62a37.16,37.16,0,0,1,7.52,18.46c.69,6.93-1.13,14.41-5.43,19s-11.14,5.73-15.89,1.83a21.54,21.54,0,0,1-5.07-6.14c-1.28-2.4-2.57-4.88-5.23-6a8.43,8.43,0,0,0-3.62-.57,10.09,10.09,0,0,0-8.86,5.54c-1.46,2.84-3,6-6.08,7.39a10.28,10.28,0,0,1-6.64.29C19.41,85.19,15.88,74.34,17.41,63.65Z" transform="translate(-0.94 -6.48)"/><path class="cls-1" d="M33.4,7c-9.71,3.6-11.74,17.83-1.38,22a12,12,0,0,0,13-2.93,12,12,0,0,0,1.83-13.22C44.53,8.27,38.45,5.16,33.4,7Z" transform="translate(-0.94 -6.48)"/><path class="cls-1" d="M64.27,7c-9.71,3.6-11.74,17.83-1.38,22a12,12,0,0,0,13-2.93,12,12,0,0,0,1.83-13.22C75.4,8.27,69.32,5.16,64.27,7Z" transform="translate(-0.94 -6.48)"/><path class="cls-1" d="M89.86,27c-8.13,1.79-10.54,12.65-4.53,18.25,4.47,4.16,12.48,3.53,16.25-1.27C108.39,35.37,99.69,24.86,89.86,27Z" transform="translate(-0.94 -6.48)"/><path class="cls-1" d="M8.82,27C.69,28.83-1.72,39.69,4.29,45.29,8.76,49.45,16.77,48.82,20.54,44,27.35,35.37,18.65,24.86,8.82,27Z" transform="translate(-0.94 -6.48)"/></svg>